<?xml version="1.0"?>
<svg id="Layer_2" data-name="Layer 2" xmlns="http://www.w3.org/2000/svg" xmlns:xlink="http://www.w3.org/1999/xlink" viewBox="0 0 427.52 151.17">
  <defs>
    <filter id="drop-shadow-1" x="-2.3" y="-2.54" width="446" height="170" filterUnits="userSpaceOnUse">
      <feOffset dx="7" dy="7"></feOffset>
      <feGaussianBlur result="blur" stdDeviation="3"></feGaussianBlur>
      <feFlood flood-color="#000" flood-opacity=".14"></feFlood>
      <feComposite in2="blur" operator="in"></feComposite>
      <feComposite in="SourceGraphic"></feComposite>
    </filter>
  </defs>
  <g id="Layer_1-2" data-name="Layer 1">
    <g class="cls-2">
      <path class="cls-1" d="M0,81.29s1.16-23.28,18.58-27.78c0,0-.17,28.96-18.58,27.78Z"></path>
      <path class="cls-1" d="M64.98,41.22s-38.02,6-46.4,42c0,0,42.75,7.04,53.32-42.65l57.91-27.91-64.83,28.57Z"></path>
      <path class="cls-1" d="M61.85,81.33s11.22-48.2,84.78-52.37L226.98,3.65l-79.57,27.39s-10.43,57.53-85.57,50.28Z"></path>
      <path class="cls-1" d="M207.93,28.17c-72.52,8.87-78.13,50.09-78.13,50.09,0,0,63.78,12.52,83.09-48.52L315.41,0l-107.48,28.17Z"></path>
      <path class="cls-1" d="M281.04,24.52c-74.93,4.7-87.85,50.48-87.85,50.48,0,0,65.35,16.04,89.02-48.72l86.87-18.59-88.04,16.83Z"></path>
      <path class="cls-1" d="M333.09,32.28c-67.57,4.04-73.17,41.61-73.17,41.61,0,0,54.91,16.17,75.65-40.04l68.48-6.91-70.96,5.35Z"></path>
      <path class="cls-1" d="M18.58,100.17s-1.99,15.39,22.86,18.59c0,0-4.04-20.22-22.86-18.59Z"></path>
      <path class="cls-1" d="M122.89,132.46c-72.78,6.26-90.78-44.35-90.78-44.35,0,0,60.13-21.26,90.78,41.93l44.35,18-44.35-15.59Z"></path>
      <path class="cls-1" d="M101.5,86.61s8.8,44.41,89.02,45.39l104.28,19.17-102.96-21.13s-25.39-60.26-90.35-43.43Z"></path>
      <path class="cls-1" d="M168.61,84.67s14.54,46.74,91.3,45.37c0,0,81.26,10.76,81.26,10.17l-81.26-12.52s-19.5-60.03-91.3-43.03Z"></path>
      <path class="cls-1" d="M236.17,84.57s9.78,38.74,83.93,37.57l62.61,6.07-61.24-8.22s-21.25-53.85-85.3-35.41Z"></path>
      <path class="cls-1" d="M298.97,83.64s23.67,36.93,80.61,10.12l47.93-.18-48.33-2.95s-56.35-38.25-80.22-6.99Z"></path>
    </g>
  </g>
</svg>
