<?xml version="1.0" encoding="UTF-8"?>
<svg id="Layer_1" data-name="Layer 1" xmlns="http://www.w3.org/2000/svg" viewBox="0 0 1920 1080">
  <defs>
    <style>
      .cls-1 {
        fill: #8b231f;
      }

      .cls-2 {
        fill: #cbab72;
      }

      .cls-3 {
        opacity: .82;
      }

      .cls-4 {
        fill: #ffffe5;
      }
    </style>
  </defs>
  <g>
    <rect class="cls-1" x="420.5" y=".5" width="1079" height="1079" rx="160.41" ry="160.41"/>
    <path d="M1339.09,1c42.71,0,82.87,16.63,113.07,46.84,30.2,30.2,46.84,70.36,46.84,113.07v758.18c0,42.71-16.63,82.87-46.84,113.07-30.2,30.2-70.36,46.84-113.07,46.84h-758.18c-42.71,0-82.87-16.63-113.07-46.84-30.2-30.2-46.84-70.36-46.84-113.07V160.91c0-42.71,16.63-82.87,46.84-113.07,30.2-30.2,70.36-46.84,113.07-46.84h758.18M1339.09,0h-758.18c-88.87,0-160.91,72.04-160.91,160.91v758.18c0,88.87,72.04,160.91,160.91,160.91h758.18c88.87,0,160.91-72.04,160.91-160.91V160.91c0-88.87-72.04-160.91-160.91-160.91h0Z"/>
  </g>
  <g class="cls-3">
    <rect class="cls-2" x="541.49" y="857.55" width="837.02" height="42.2"/>
    <path d="M1378.01,858.05v41.2h-836.02v-41.2h836.02M1379.01,857.05h-838.02v43.2h838.02v-43.2h0Z"/>
  </g>
  <g id="Layer_1-2" data-name="Layer 1-2">
    <g>
      <path class="cls-4" d="M550.91,743.65s-25.04-47.85,4.46-77.3c0,0,33.69,58.02-4.46,77.3Z"/>
      <path class="cls-4" d="M633.57,587.29s-68.87,56.65-43.3,138.38c0,0,93.63-36.17,56.35-147.81l82.84-123.77-95.88,133.22v-.02Z"/>
      <path class="cls-4" d="M674.45,671.05s-34.23-109.43,107.75-204.18l130.7-144.94-126.7,148.18s46.77,127.13-111.78,200.94h.03Z"/>
      <path class="cls-4" d="M903.67,393.27c-134.38,102.92-97.15,191.82-97.15,191.82,0,0,142.06-49.94,108.9-194.51l169.76-179.84-181.51,182.53Z"/>
      <path class="cls-4" d="M1045.36,300.08c-144.09,97.42-116.1,204.01-116.1,204.01,0,0,149.33-44.76,120.5-201.87l151.61-139.19-156.02,137.05h0Z"/>
      <path class="cls-4" d="M1158.41,254.42c-130.17,87.46-97.21,169.06-97.21,169.06,0,0,128.64-32.23,104.01-168.83l128.62-94.26-135.4,94.06v-.02Z"/>
      <path class="cls-4" d="M610.19,759.51s14.11,33.07,67.49,10.26c0,0-31.82-35.63-67.49-10.26Z"/>
      <path class="cls-4" d="M856.41,701.43c-137.97,98.01-233.37,18.11-233.37,18.11,0,0,95.08-113.1,230.53-22.94l109.7-16.17-106.87,20.98v.02Z"/>
      <path class="cls-4" d="M759.83,635.01s69.75,78.33,231.08-13.96l230.74-84.25-230.41,78.78s-121.5-90.49-231.43,19.44h.02Z"/>
      <path class="cls-4" d="M891.55,552.29s83.95,76.24,235.61-16.68c0,0,174.9-73.99,174.2-75.17l-176.96,70.48s-109.47-96.95-232.86,21.35v.02Z"/>
      <path class="cls-4" d="M1026.33,472.71s65.05,65.86,211.73-23.6l132.15-61.44-131.94,55.54s-105.7-82.56-211.93,29.52v-.02Z"/>
      <path class="cls-4" d="M1150.63,397.06s90.65,45.93,172.85-74.51l95.49-56.67-99.97,50.9s-157.46-10.17-168.39,80.3h.02Z"/>
    </g>
  </g>
  <g class="cls-3">
    <rect class="cls-2" x="541.49" y="963.3" width="837.02" height="42.2"/>
    <path d="M1378.01,963.8v41.2h-836.02v-41.2h836.02M1379.01,962.8h-838.02v43.2h838.02v-43.2h0Z"/>
  </g>
</svg>